<?xml version="1.0" standalone="no"?>
<!DOCTYPE svg PUBLIC "-//W3C//DTD SVG 20010904//EN"
 "http://www.w3.org/TR/2001/REC-SVG-20010904/DTD/svg10.dtd">
<svg version="1.0" xmlns="http://www.w3.org/2000/svg"
 width="630.000000pt" height="534.000000pt" viewBox="0 0 630.000000 534.000000"
 preserveAspectRatio="xMidYMid meet">

<g transform="translate(0.000000,534.000000) scale(0.100000,-0.100000)"
fill="#000000" stroke="none">
<path d="M1748 4787 c-20 -12 -150 -99 -290 -192 -236 -159 -449 -293 -765
-481 -77 -46 -134 -86 -137 -97 -5 -22 30 -61 49 -53 16 6 296 173 525 314 85
52 260 165 388 251 128 86 252 166 276 179 70 37 97 26 228 -89 140 -125 221
-168 334 -178 60 -5 91 -13 125 -33 59 -35 198 -147 353 -286 66 -60 177 -159
245 -221 109 -97 141 -122 141 -107 0 2 7 19 15 38 l14 35 -216 194 c-118 107
-221 197 -227 202 -13 9 7 26 123 104 104 70 257 149 306 159 53 10 105 -9
167 -61 29 -24 56 -41 60 -37 3 4 11 24 16 45 11 37 10 38 -42 77 -69 52 -128
73 -188 66 -91 -10 -276 -106 -452 -234 l-68 -50 -84 67 c-119 97 -164 119
-267 130 -115 13 -170 42 -293 152 -54 49 -117 98 -140 109 -57 28 -147 27
-196 -3z"/>
<path d="M1780 4458 c-5 -13 -18 -77 -30 -143 -46 -262 -103 -444 -238 -757
-122 -283 -173 -457 -210 -713 l-17 -120 -120 -9 c-194 -15 -432 15 -557 68
-11 5 -24 0 -37 -13 -17 -17 -19 -25 -11 -41 15 -28 52 -44 150 -68 199 -48
453 -49 742 -1 77 13 142 19 163 15 28 -6 63 -32 152 -118 139 -133 185 -158
309 -166 46 -2 154 1 241 7 174 14 161 8 209 97 l27 50 -36 86 c-51 119 -90
272 -138 552 -69 403 -142 582 -203 495 -13 -19 -12 -27 15 -89 42 -99 64
-190 105 -430 45 -266 80 -408 136 -549 l44 -110 -85 -8 c-47 -4 -153 -8 -236
-8 -182 0 -177 -2 -330 139 -60 56 -122 110 -137 119 -43 27 -104 30 -207 12
-51 -9 -96 -14 -99 -11 -7 7 14 156 40 281 29 143 74 275 176 512 132 308 196
516 248 815 14 80 15 100 4 112 -19 24 -59 20 -70 -6z"/>
<path d="M3556 4376 c-9 -22 -14 -47 -11 -56 3 -9 52 -64 108 -121 148 -150
258 -209 291 -156 15 24 -1 47 -56 77 l-46 25 112 0 c105 0 115 2 183 34 102
48 130 42 227 -42 125 -109 227 -169 342 -202 124 -36 157 -63 211 -170 19
-38 51 -89 70 -112 36 -45 193 -154 250 -175 18 -7 33 -14 33 -18 0 -3 -21
-16 -47 -30 -27 -14 -83 -60 -125 -102 l-78 -78 -67 24 c-288 101 -578 281
-786 488 -68 69 -94 80 -117 53 -21 -26 -2 -60 72 -131 205 -195 464 -360 728
-464 58 -23 107 -44 109 -46 2 -2 -2 -10 -9 -19 -24 -30 -228 -7 -358 40 -38
14 -77 25 -85 25 -24 0 -40 -36 -28 -59 19 -35 159 -79 339 -106 l44 -7 -29
-30 c-27 -29 -30 -29 -91 -23 -69 7 -171 39 -242 75 -25 12 -99 62 -165 109
-157 114 -206 141 -350 191 -187 65 -319 146 -543 330 -68 56 -125 101 -126
99 -5 -6 -36 -68 -36 -72 0 -9 222 -189 310 -252 116 -82 205 -127 375 -191
131 -49 140 -54 422 -246 86 -59 154 -89 266 -117 l68 -17 -60 -57 c-33 -32
-76 -64 -95 -72 -64 -27 -199 -54 -351 -70 -143 -15 -154 -17 -255 -64 -145
-67 -206 -81 -459 -101 l-143 -12 -50 48 c-57 56 -213 247 -307 377 l-64 88
-24 -41 -25 -41 102 -135 c56 -74 132 -170 170 -213 l69 -78 -52 -7 c-29 -3
-93 -6 -143 -6 -50 0 -159 -3 -243 -7 l-153 -6 -25 -40 c-13 -21 -23 -41 -20
-43 2 -2 150 0 328 6 773 23 875 35 1074 131 59 29 101 42 160 49 209 25 240
28 243 25 2 -2 -39 -32 -90 -67 -51 -34 -94 -70 -96 -78 -1 -9 4 -24 12 -35
14 -19 27 -20 329 -20 313 0 316 0 344 -23 83 -67 113 -85 190 -114 49 -19 99
-46 121 -66 24 -22 30 -31 17 -27 -54 18 -296 66 -425 85 -80 11 -214 34 -298
51 -226 43 -327 52 -637 51 -385 -1 -1122 -54 -1184 -86 -44 -23 -77 -69 -91
-127 -22 -92 -93 -145 -217 -165 -34 -5 -47 -13 -68 -46 -15 -22 -24 -42 -21
-46 15 -14 184 19 243 48 75 37 109 79 139 169 36 107 -34 93 739 152 207 16
733 16 865 0 58 -7 159 -24 225 -37 66 -13 194 -36 285 -50 288 -43 530 -107
690 -180 119 -55 133 -73 174 -228 15 -55 42 -139 61 -187 19 -47 35 -92 35
-98 0 -15 -20 -22 -260 -92 -113 -33 -293 -90 -400 -126 -226 -76 -308 -87
-443 -59 -203 42 -527 42 -927 0 -745 -77 -1307 -74 -1808 13 l-93 16 -35 -34
c-24 -23 -30 -35 -22 -40 17 -9 225 -45 363 -63 232 -30 422 -39 733 -33 287
5 445 15 832 51 458 43 703 45 920 7 191 -34 237 -29 516 63 93 30 274 87 402
125 128 38 248 78 265 88 43 26 56 74 34 134 -9 24 -30 81 -46 127 -17 46 -40
120 -52 165 -38 150 -82 195 -268 275 -84 36 -96 44 -118 83 -13 24 -40 61
-60 81 l-36 36 111 129 c211 247 302 358 302 373 0 22 -20 40 -46 40 -15 0
-53 -39 -135 -137 -63 -76 -158 -189 -213 -251 -89 -103 -101 -113 -125 -107
-48 11 -107 44 -159 90 -29 24 -68 48 -86 53 -18 5 -136 8 -262 5 -222 -4
-228 -3 -204 14 200 144 429 362 614 585 168 202 221 246 333 275 85 22 101
33 238 157 137 126 253 220 360 294 38 27 71 56 73 66 5 23 -16 46 -42 46 -42
0 -233 -146 -436 -331 -63 -58 -124 -110 -134 -116 -24 -13 -59 -2 -171 55
-149 75 -209 130 -267 247 -60 119 -102 154 -233 196 -132 41 -222 93 -330
189 -91 80 -116 93 -189 93 -48 0 -75 -7 -126 -32 -84 -40 -173 -42 -316 -6
l-99 25 -61 67 -62 68 -16 -39z"/>
<path d="M5928 3338 c-143 -167 -189 -228 -186 -249 4 -26 29 -44 51 -36 27
10 247 281 247 304 0 21 -25 43 -48 43 -6 0 -35 -28 -64 -62z"/>
<path d="M2750 3200 c-8 -14 -7 -26 1 -42 18 -35 72 -108 79 -108 3 0 16 17
27 38 l22 37 -35 48 c-38 52 -75 63 -94 27z"/>
<path d="M5974 2953 c-6 -5 -72 -121 -148 -260 -120 -220 -136 -254 -126 -273
8 -15 19 -20 38 -18 23 3 39 25 119 168 159 285 190 347 177 367 -12 20 -43
28 -60 16z"/>
<path d="M3007 2162 c-22 -24 -21 -35 1 -56 17 -14 46 -16 252 -14 222 3 233
4 246 23 12 18 11 24 -2 43 -15 22 -19 22 -248 22 -213 0 -234 -2 -249 -18z"/>
<path d="M3396 2028 c-13 -19 -14 -25 -2 -43 13 -19 24 -20 226 -23 148 -2
217 1 226 9 20 17 17 57 -5 69 -12 6 -103 10 -225 10 -200 0 -205 -1 -220 -22z"/>
<path d="M1487 2008 c-244 -25 -455 -114 -610 -258 -54 -50 -151 -166 -159
-192 -2 -6 -25 -6 -68 2 -62 11 -65 11 -82 -11 -16 -19 -17 -24 -5 -43 12 -17
43 -26 183 -52 324 -59 539 -118 631 -171 23 -13 72 -48 109 -78 l68 -54 25
19 c14 10 48 41 74 68 l48 49 -128 32 c-70 18 -157 45 -193 60 -129 55 -206
78 -414 121 -83 17 -152 32 -154 35 -10 10 91 123 161 179 145 117 315 182
544 207 73 8 197 10 380 5 l272 -6 25 43 26 42 -163 6 c-232 9 -468 8 -570 -3z"/>
<path d="M5096 1814 c-21 -20 -20 -37 2 -57 15 -14 41 -17 139 -17 103 0 122
3 136 18 21 23 21 36 1 56 -23 23 -255 23 -278 0z"/>
<path d="M1238 1783 c-23 -6 -34 -49 -18 -68 10 -12 49 -15 224 -15 116 0 216
4 222 8 19 13 23 40 9 59 -12 16 -32 18 -217 20 -112 1 -211 -1 -220 -4z"/>
<path d="M4792 1688 c-18 -18 -14 -56 7 -68 29 -15 513 -14 529 2 15 15 15 51
0 66 -17 17 -519 17 -536 0z"/>
<path d="M1070 1653 c-16 -6 -40 -32 -40 -44 0 -4 7 -15 16 -23 20 -20 213
-23 232 -4 21 21 14 58 -14 68 -26 10 -168 12 -194 3z"/>
<path d="M1675 1130 c-18 -19 -25 -34 -19 -39 17 -17 237 -174 349 -250 61
-41 177 -107 259 -146 82 -40 144 -75 138 -79 -5 -3 -43 -11 -84 -17 -89 -13
-150 1 -241 56 -63 38 -88 43 -107 20 -27 -32 -4 -61 84 -106 l84 -43 -74 -80
c-74 -81 -84 -102 -62 -124 27 -27 55 -12 132 72 85 94 110 107 236 127 66 10
80 16 113 49 66 66 46 104 -78 155 -163 66 -269 128 -510 298 -93 66 -175 124
-181 128 -6 5 -22 -3 -39 -21z"/>
<path d="M1265 1074 c-20 -21 -16 -41 26 -117 l31 -59 29 28 c36 34 36 39 2
100 -38 69 -57 79 -88 48z"/>
<path d="M2552 978 c-59 -29 -122 -102 -122 -143 0 -70 81 -101 244 -93 112 6
160 23 178 63 15 33 3 69 -38 115 -71 78 -174 101 -262 58z m171 -94 c21 -14
36 -31 34 -37 -5 -17 -219 -17 -224 0 -7 21 68 63 112 63 27 0 53 -9 78 -26z"/>
<path d="M1411 849 l-24 -31 49 -49 c84 -85 218 -136 242 -93 18 32 1 52 -59
74 -40 14 -78 39 -118 76 -32 29 -60 54 -62 53 -2 0 -15 -14 -28 -30z"/>
<path d="M4992 869 c-53 -10 -86 -33 -187 -129 -73 -69 -118 -98 -217 -138
-34 -14 -37 -45 -7 -65 16 -12 29 -13 57 -5 38 11 108 43 130 61 7 5 78 10
160 11 161 2 211 14 271 64 26 21 33 35 34 64 1 47 -27 79 -97 112 -65 31 -91
35 -144 25z m107 -105 c47 -24 50 -28 34 -39 -34 -23 -88 -36 -170 -42 -54 -4
-83 -2 -83 4 0 13 81 80 112 92 36 15 50 13 107 -15z"/>
</g>
</svg>
