<svg aria-hidden="true" style="position: absolute; width: 0; height: 0; overflow: hidden;" version="1.1" xmlns="http://www.w3.org/2000/svg" xmlns:xlink="http://www.w3.org/1999/xlink">
<defs>
<symbol id="icon-frock" viewBox="0 0 32 32">
<path fill="#020202" style="fill: var(--color1, #020202)" d="M17.422 7.484l0.203 0.203 0.141 0.172 0.203 0.219 0.422 0.141 0.391 0.094 0.297 0.047h0.453l0.234-0.063 0.25-0.125 0.172-0.078 0.188-0.047h0.328l0.25 0.063 0.188 0.109 0.219 0.188 0.125 0.125 0.172 0.141 0.219 0.172 0.219 0.141 0.281 0.156 0.281 0.125 0.656 0.219 0.25 0.125 0.156 0.125 0.094 0.078 0.141 0.188 0.188 0.359 0.125 0.25 0.141 0.188 0.172 0.188 0.25 0.188 0.25 0.156 0.359 0.188 0.422 0.188 0.172 0.063 0.109-0.016 0.172-0.109 0.188-0.172 0.156-0.156 0.125-0.109 0.234-0.219 0.156-0.141 0.203-0.172 0.172-0.141 0.219-0.188 0.531-0.406 0.406-0.266 0.109-0.047h0.125l0.078 0.047 0.063 0.094v0.109l-0.063 0.094-0.266 0.172-0.313 0.219-0.297 0.219-0.219 0.188-0.219 0.172-0.219 0.188-0.172 0.156-0.125 0.109-0.25 0.234-0.266 0.266-0.203 0.156-0.219 0.125-0.203 0.078-0.391 0.109-0.25 0.125-0.219 0.156-0.156 0.141-0.188 0.188-0.141 0.172-0.141 0.156-0.125 0.156-0.203 0.25-0.141 0.172-0.156 0.172-0.141 0.172-0.25 0.266-0.219 0.234-0.422 0.422-0.125 0.109-0.203 0.188-0.172 0.141-0.219 0.188-0.219 0.172-0.328 0.25-0.344 0.234-0.016 0.031 0.063-0.016h0.266l0.703-0.016 0.703-0.031h0.453l0.219 0.047 0.172 0.094 0.406 0.344 0.266 0.141 0.344 0.125h0.031l0.141-0.172 0.141-0.156 0.109-0.125 0.203-0.234 0.109-0.125 0.188-0.219 0.141-0.172 0.172-0.203 0.188-0.219 0.172-0.219 0.141-0.156 0.172-0.219 0.141-0.156 0.031-0.016h0.109l0.094 0.047 0.063 0.078 0.016 0.078-0.031 0.094-0.125 0.172-0.172 0.203-0.109 0.141-0.203 0.234-0.125 0.156-0.188 0.219-0.141 0.156-0.141 0.172-0.172 0.203-0.141 0.172-0.203 0.219-0.172 0.219v0.047l0.172 0.141 0.172 0.219 0.188 0.359 0.469 0.188 0.438 0.203 0.266 0.156 0.188 0.172 0.125 0.141 0.125 0.25 0.063 0.188 0.109 0.438 0.109 0.359 0.188 0.5 0.125 0.297 0.031 0.109v0.234l-0.063 0.141-0.063 0.078-0.172 0.109-0.531 0.172-0.625 0.188-0.641 0.188-0.609 0.188-0.734 0.234-0.672 0.219-0.297 0.078-0.359 0.063-0.391 0.016-0.391-0.047-0.625-0.109-0.5-0.047-0.25-0.016h-1.125l-0.594 0.031-1.078 0.078-1.172 0.109-1.141 0.094-0.953 0.063-0.844 0.031-1.172 0.016-0.625-0.016-0.547-0.031-0.891-0.078-0.766-0.094-0.781-0.125-0.656-0.125-0.031-0.016 0.031-0.063 0.188-0.188 0.078-0.094 0.047-0.016 0.656 0.125 0.828 0.109 0.922 0.094 0.656 0.047 0.719 0.031h1.609l0.688-0.031 0.922-0.063 1.453-0.125 0.719-0.078 1.047-0.078 0.578-0.031 0.547-0.016h0.578l0.672 0.047 0.484 0.063 0.531 0.094 0.156 0.016h0.453l0.313-0.063 0.375-0.109 0.406-0.156 0.781-0.25 0.938-0.281 0.922-0.266 0.563-0.188 0.016-0.078-0.094-0.25-0.172-0.422-0.172-0.531-0.141-0.547-0.078-0.188-0.109-0.141-0.109-0.094-0.266-0.156-0.344-0.156-0.375-0.141-0.484-0.156-0.531-0.141-0.766-0.172-0.563-0.094-1.016-0.156-1.125-0.219-0.438-0.063-0.484-0.047-0.469-0.031-0.469-0.016h-1.063l-1.328 0.047-1.578 0.109-1.906 0.156-0.141 0.031-0.125 0.078-0.063 0.078-0.109 0.375-0.094 0.219-0.109 0.156-0.125 0.141-0.188 0.141-0.234 0.109-0.297 0.094-0.359 0.063-0.422 0.031 0.016-0.063 0.203-0.328 0.047-0.047 0.406-0.063 0.281-0.094 0.188-0.109 0.141-0.125 0.094-0.141 0.078-0.219 0.078-0.266 0.094-0.156 0.094-0.109 0.172-0.109 0.188-0.078 0.328-0.047 1.719-0.141 1.563-0.109 0.75-0.031 0.453-0.016h1.469l0.641 0.031 0.531 0.047 0.531 0.078 1.188 0.234 0.875 0.125 0.828 0.141 0.609 0.141 0.359 0.094 0.047 0.016-0.109-0.125-0.125-0.109-0.219-0.109-0.531-0.203-0.266-0.141-0.203-0.172-0.156-0.141-0.125-0.078-0.109-0.031h-0.25l-0.719 0.031-0.656 0.016h-0.766l-0.344-0.031-0.141-0.031-0.078-0.063-0.047-0.109 0.031-0.141 0.109-0.094 0.375-0.234 0.281-0.203 0.109-0.078-0.25 0.031-0.422 0.047-0.594 0.047-0.313 0.078-0.281 0.125-0.297 0.156-0.281 0.109-0.422 0.109-0.328 0.063-0.688 0.078-0.906 0.063-0.656 0.031-1.891 0.047-1.156 0.047h-0.094l0.031-0.078 0.141-0.234 0.078-0.109 0.172-0.016 1.734-0.063 0.547-0.016h0.344l-0.109-0.125-0.172-0.188-0.141-0.172-0.188-0.219-0.172-0.219-0.188-0.234-0.219-0.297-0.25-0.328-0.172-0.234 0.031-0.078 0.141-0.266 0.031-0.063 0.047 0.016 0.172 0.25 0.203 0.266 0.281 0.375 0.156 0.203 0.172 0.219 0.203 0.25 0.141 0.172 0.188 0.203 0.172 0.188 0.25 0.25 0.406-0.016 0.953-0.078 0.438-0.063 0.313-0.063 0.453-0.141 0.516-0.266 0.266-0.094 0.313-0.063 0.938-0.094 0.344-0.063 0.469-0.109 0.313-0.094 0.156-0.078 0.172-0.141 0.266-0.25 0.141-0.141-0.016-0.016-0.266-0.047-0.359-0.094-0.281-0.094-0.266-0.125-0.234-0.141-0.297-0.188-0.203-0.156-0.531-0.375-0.219-0.141-0.219-0.125-0.391-0.188-0.5-0.172-0.422-0.172-0.391-0.188-0.234-0.125-0.25-0.156-0.266-0.188-0.281-0.203-0.266-0.203-0.203-0.172-0.172-0.141-0.203-0.172-0.328-0.281 0.031-0.094 0.125-0.281 0.063 0.016 0.219 0.188 0.172 0.141 0.234 0.203 0.25 0.203 0.266 0.203 0.281 0.203 0.297 0.203 0.391 0.234 0.281 0.156 0.406 0.172 0.688 0.234 0.375 0.172 0.297 0.172 0.359 0.25 0.594 0.438 0.297 0.188 0.359 0.188 0.5 0.172 0.375 0.063 0.141 0.016h0.203l0.172-0.172 0.078-0.109h-0.172l-0.422-0.063-0.453-0.094-0.469-0.156-0.25-0.125-0.047-0.078-0.016-0.125 0.063-0.094 0.109-0.063h0.094l0.297 0.125 0.328 0.109 0.609 0.109 0.438 0.047h0.234l0.125-0.141 0.016-0.047-0.141-0.031-0.563-0.219-0.422-0.188-0.531-0.266-0.281-0.156-0.297-0.172-0.469-0.313-0.266-0.188-0.188-0.141-0.156-0.125-0.172-0.141-0.188-0.172-0.125-0.109-0.266-0.25-0.109-0.109-0.109-0.125-0.078-0.125v-0.109l0.063-0.094 0.078-0.047h0.125l0.094 0.063 0.125 0.125 0.109 0.125 0.188 0.188 0.125 0.109 0.234 0.203 0.203 0.172 0.266 0.203 0.219 0.156 0.422 0.281 0.406 0.234 0.281 0.156 0.297 0.156 0.563 0.25 0.297 0.125 0.391 0.141 0.109 0.031h0.078l0.141-0.156 0.109-0.125 0.266-0.266 0.219-0.172 0.234-0.156 0.172-0.094-0.469-0.234-0.328-0.203-0.234-0.172-0.172-0.141-0.188-0.203-0.141-0.203-0.172-0.328-0.125-0.25-0.094-0.125-0.141-0.125-0.234-0.125-0.703-0.234-0.375-0.172-0.281-0.172-0.219-0.156-0.219-0.172-0.234-0.219-0.156-0.141-0.141-0.094-0.109-0.047-0.078-0.016h-0.172l-0.172 0.063-0.328 0.156-0.328 0.094-0.219 0.031h-0.266l-0.375-0.047h-0.078l0.359 0.188 0.125 0.094 0.047 0.078v0.094l-0.063 0.094-0.063 0.047-0.141 0.016-0.328-0.156-0.281-0.188-0.172-0.141-0.25-0.234-0.188-0.188-0.109-0.125-0.203-0.219-0.141-0.172-0.016-0.063 0.125-0.359z"></path>
<path fill="#030303" style="fill: var(--color2, #030303)" d="M9.078 7.156h0.125l0.094 0.063 0.047 0.078v0.141l-0.109 0.641-0.141 0.688-0.172 0.688-0.188 0.609-0.172 0.5-0.234 0.578-0.281 0.641-0.234 0.547-0.203 0.531-0.141 0.438-0.141 0.516-0.141 0.703-0.109 0.75-0.016 0.125 0.813-0.141h0.344l0.25 0.078 0.156 0.094 0.156 0.125 0.156 0.156 0.125 0.109 0.109 0.109 0.125 0.109 0.234 0.234 0.203 0.156 0.188 0.094 0.203 0.063 0.188 0.031 0.219 0.016h0.297l1.063-0.094 0.375-0.016-0.156-0.328-0.172-0.438-0.156-0.469-0.172-0.656-0.125-0.656-0.203-1.219-0.109-0.531-0.109-0.406-0.141-0.391-0.141-0.313v-0.109l0.063-0.094 0.078-0.047h0.125l0.094 0.063 0.094 0.156 0.172 0.422 0.109 0.344 0.125 0.516 0.109 0.609 0.188 1.125 0.125 0.594 0.141 0.531 0.188 0.547 0.172 0.391 0.047 0.109-0.016 0.109-0.203 0.344-0.125 0.203-0.016 0.016-1.359 0.109h-0.547l-0.375-0.063-0.203-0.063-0.297-0.156-0.266-0.219-0.516-0.516-0.125-0.109-0.141-0.125-0.219-0.109-0.063-0.016h-0.219l-0.688 0.125-0.516 0.063-0.531 0.047-0.5 0.031h-0.438l-0.453-0.031-0.516-0.063-0.422-0.094-0.375-0.109-0.219-0.109-0.078-0.094v-0.141l0.063-0.094 0.094-0.047 0.109 0.016 0.297 0.109 0.359 0.094 0.219 0.047 0.359 0.047 0.406 0.031 0.422 0.016 0.766-0.031 0.359-0.031 0.016-0.219 0.094-0.688 0.109-0.578 0.141-0.594 0.141-0.453 0.188-0.531 0.188-0.453 0.219-0.5 0.297-0.703 0.188-0.484 0.188-0.563 0.156-0.547 0.156-0.656 0.141-0.75 0.078-0.438 0.063-0.094z"></path>
<path fill="#030303" style="fill: var(--color2, #030303)" d="M9.188 5.594h0.203l0.219 0.047 0.25 0.125 0.203 0.156 0.188 0.172 0.125 0.109 0.203 0.188 0.172 0.141 0.141 0.109 0.219 0.125 0.25 0.109 0.234 0.047 0.391 0.031 0.25 0.063 0.25 0.125 0.328 0.219 0.25 0.203 0.172 0.141 0.188 0.156 0.063-0.016 0.172-0.141 0.266-0.188 0.156-0.109 0.344-0.219 0.328-0.203 0.422-0.219 0.266-0.125 0.281-0.094 0.078-0.016h0.359l0.234 0.063 0.219 0.109 0.188 0.141 0.219 0.188-0.016 0.125-0.094 0.328-0.063-0.031-0.125-0.125-0.125-0.109-0.188-0.141-0.203-0.094-0.156-0.031h-0.141l-0.25 0.063-0.328 0.141-0.297 0.156-0.266 0.156-0.297 0.188-0.188 0.125-0.266 0.188-0.203 0.156-0.031 0.031 0.109 0.109 0.125 0.109 0.156 0.141 0.125 0.109 0.156 0.141 0.188 0.172 0.125 0.109 0.188 0.172 0.172 0.141 0.266 0.25 0.125 0.109 0.156 0.141 0.203 0.188 0.016 0.063-0.141 0.313-0.047 0.031-0.188-0.172-0.172-0.141-0.109-0.109-0.172-0.141-0.109-0.109-0.125-0.109-0.219-0.203-0.125-0.109-0.156-0.141-0.125-0.109-0.156-0.141-0.188-0.172-0.125-0.109-0.156-0.141-0.219-0.188-0.172-0.141-0.234-0.203-0.25-0.188-0.219-0.172-0.297-0.188-0.125-0.063-0.109-0.031-0.438-0.016-0.359-0.094-0.328-0.156-0.234-0.156-0.219-0.172-0.234-0.219-0.188-0.172-0.203-0.188-0.156-0.109-0.109-0.047-0.078-0.016h-0.234l-0.203 0.078-0.281 0.203-0.297 0.203-0.266 0.188-0.609 0.406-0.219 0.141-0.359 0.234-0.641 0.406-0.656 0.406-0.391 0.234-0.438 0.266-0.328 0.203-0.297 0.172-0.234 0.141-0.453 0.266-0.141 0.047-0.125-0.063-0.047-0.078-0.016-0.109 0.047-0.094 0.094-0.078 0.719-0.422 0.391-0.234 0.359-0.219 0.313-0.188 0.297-0.188 0.313-0.188 0.328-0.203 0.266-0.172 0.375-0.234 0.547-0.359 0.563-0.375 0.266-0.188 0.297-0.203 0.281-0.203 0.234-0.141 0.219-0.078z"></path>
<path fill="#020202" style="fill: var(--color1, #020202)" d="M8.438 18.781h0.781l1.406 0.063h0.422l-0.031 0.063-0.172 0.281-0.063 0.078-0.5-0.016-1.219-0.047h-0.469l-0.656 0.031-0.469 0.047-0.297 0.047-0.531 0.125-0.375 0.125-0.359 0.156-0.359 0.203-0.25 0.172-0.219 0.172-0.188 0.172-0.156 0.156-0.141 0.172-0.156 0.203-0.047 0.063v0.031l0.922 0.188 0.688 0.156 0.484 0.141 0.359 0.125 0.266 0.109 0.219 0.109 0.875 0.234 0.391 0.094v0.031l-0.125 0.109-0.266 0.25-0.172 0.172-0.094 0.078-0.063-0.016-0.25-0.188-0.266-0.219-0.234-0.156-0.234-0.125-0.406-0.156-0.453-0.141-0.641-0.156-0.734-0.156-1.109-0.203-0.234-0.047-0.078-0.047-0.047-0.078v-0.141l0.094-0.109 0.031-0.016h0.172l0.391 0.063 0.063-0.016 0.156-0.234 0.141-0.188 0.125-0.156 0.219-0.234 0.141-0.141 0.344-0.281 0.328-0.219 0.25-0.141 0.297-0.141 0.375-0.141 0.375-0.109 0.563-0.109 0.484-0.063z"></path>
<path fill="#030303" style="fill: var(--color2, #030303)" d="M8.594 22.844l0.078 0.031 0.172 0.125 0.297 0.219 0.25 0.172 0.281 0.203 0.266 0.188 0.563 0.375 0.203 0.125 0.453 0.25 0.438 0.219 0.359 0.156 0.344 0.141 0.109 0.094 0.047 0.094v0.188l-0.109 0.172-0.141 0.125-0.156 0.078-0.25 0.063-0.547 0.094-0.219 0.109-0.234 0.219-0.109 0.109-0.141 0.172-0.188 0.203-0.094 0.078-0.109 0.031-0.109-0.047-0.063-0.078-0.016-0.031v-0.125l0.125-0.156 0.125-0.141 0.109-0.125 0.141-0.156 0.063-0.078 0.109-0.094 0.016-0.031-0.156-0.047-0.344-0.172-0.219-0.141-0.094-0.078-0.031-0.063v-0.125l0.063-0.094 0.063-0.047h0.125l0.156 0.078 0.266 0.156 0.219 0.109 0.313 0.094 0.156 0.031 0.156-0.016 0.344-0.047 0.25-0.063h0.047l-0.047-0.047-0.422-0.172-0.469-0.219-0.375-0.203-0.344-0.203-0.281-0.188-0.344-0.234-0.297-0.219-0.266-0.188-0.281-0.203-0.297-0.219-0.234-0.156 0.094-0.109z"></path>
<path fill="#020202" style="fill: var(--color1, #020202)" d="M24.156 24.188h0.297l0.234 0.063 0.266 0.141 0.219 0.156 0.094 0.156 0.016 0.063v0.141l-0.063 0.156-0.141 0.141-0.266 0.141-0.234 0.078-0.391 0.063-0.172 0.016h-0.344l-0.422-0.047h-0.094l-0.172 0.125-0.219 0.125-0.25 0.094-0.188 0.047-0.109-0.016-0.109-0.094-0.016-0.047v-0.125l0.078-0.094 0.172-0.063 0.234-0.078 0.281-0.172 0.219-0.188 0.109-0.109 0.125-0.109 0.219-0.219 0.219-0.172 0.188-0.109zM24.25 24.594l-0.172 0.047-0.141 0.094-0.172 0.141-0.172 0.172 0.016 0.047h0.469l0.266-0.031 0.234-0.063 0.188-0.078 0.094-0.063-0.078-0.078-0.141-0.094-0.188-0.078-0.078-0.016z"></path>
<path fill="#020202" style="fill: var(--color1, #020202)" d="M12.938 23.578h0.172l0.25 0.047 0.219 0.109 0.203 0.156 0.141 0.141 0.109 0.172 0.031 0.078v0.172l-0.063 0.125-0.141 0.125-0.172 0.063-0.328 0.047h-0.719l-0.25-0.047-0.156-0.063-0.094-0.063-0.078-0.094-0.047-0.125 0.016-0.156 0.094-0.172 0.203-0.219 0.188-0.141 0.234-0.109zM12.938 24l-0.172 0.063-0.172 0.125-0.125 0.141 0.016 0.031 0.266 0.047h0.594l0.234-0.031 0.047-0.016-0.031-0.063-0.109-0.125-0.172-0.109-0.156-0.063z"></path>
<path fill="#020202" style="fill: var(--color1, #020202)" d="M28.859 14.328l0.109 0.031 0.078 0.063 0.031 0.078-0.016 0.125-0.156 0.313-0.109 0.188-0.094 0.188-0.141 0.25-0.203 0.375-0.203 0.359-0.234 0.422-0.141 0.25-0.109 0.047-0.109-0.016-0.109-0.094-0.016-0.047v-0.109l0.125-0.25 0.25-0.453 0.156-0.281 0.203-0.375 0.203-0.359 0.188-0.359 0.141-0.25 0.094-0.078z"></path>
<path fill="#020202" style="fill: var(--color1, #020202)" d="M23.25 20.297h2.406l0.094 0.078 0.031 0.063v0.125l-0.063 0.094-0.078 0.047h-2.375l-0.078-0.047-0.063-0.078v-0.156l0.094-0.109z"></path>
<path fill="#020202" style="fill: var(--color1, #020202)" d="M14.813 18.047h2.219l0.094 0.078 0.031 0.078-0.016 0.125-0.078 0.078-0.109 0.047h-2.063l-0.109-0.047-0.063-0.063-0.031-0.063 0.016-0.109 0.063-0.094z"></path>
<path fill="#020202" style="fill: var(--color1, #020202)" d="M16.672 18.656h1.984l0.078 0.047 0.063 0.094v0.109l-0.063 0.094-0.063 0.047-0.063 0.016h-1.906l-0.094-0.063-0.063-0.078v-0.141l0.094-0.109z"></path>
<path fill="#040404" style="fill: var(--color3, #040404)" d="M6.406 19.891h1.953l0.094 0.047 0.063 0.094v0.125l-0.063 0.094-0.047 0.031-0.719 0.016h-1.188l-0.125-0.016-0.094-0.094-0.016-0.141 0.063-0.109z"></path>
<path fill="#040404" style="fill: var(--color3, #040404)" d="M28.813 12.281l0.141 0.016 0.109 0.094 0.016 0.141-0.047 0.094-0.125 0.156-0.188 0.219-0.141 0.172-0.172 0.203-0.141 0.172-0.172 0.203-0.141 0.156-0.031 0.016h-0.109l-0.109-0.047-0.063-0.094v-0.109l0.063-0.109 0.188-0.219 0.141-0.172 0.172-0.203 0.422-0.516 0.109-0.125z"></path>
<path fill="#030303" style="fill: var(--color2, #030303)" d="M7.359 24.156l0.063 0.031 0.188 0.203 0.156 0.141 0.172 0.109 0.219 0.109 0.25 0.078 0.078 0.063 0.047 0.109-0.016 0.094-0.078 0.094-0.063 0.031h-0.125l-0.25-0.078-0.266-0.125-0.188-0.125-0.203-0.188-0.234-0.234 0.031-0.078 0.109-0.109z"></path>
<path fill="#030303" style="fill: var(--color2, #030303)" d="M24.797 19.672h0.953l0.125 0.016 0.078 0.063 0.047 0.109-0.016 0.109-0.078 0.094-0.094 0.031h-1.094l-0.094-0.047-0.063-0.078-0.016-0.094 0.047-0.109 0.078-0.078z"></path>
<path fill="#020202" style="fill: var(--color1, #020202)" d="M5.609 20.5h0.891l0.078 0.031 0.078 0.094 0.016 0.031-0.016 0.141-0.125 0.109-0.125 0.016h-0.719l-0.141-0.031-0.094-0.109-0.016-0.109 0.063-0.109 0.063-0.047z"></path>
<path fill="#030303" style="fill: var(--color2, #030303)" d="M6.625 23.172h0.109l0.094 0.063 0.188 0.344 0.078 0.141-0.016 0.078-0.203 0.219-0.031 0.047-0.063-0.031-0.219-0.391-0.078-0.172-0.016-0.141 0.063-0.094z"></path>
<path fill="#030303" style="fill: var(--color2, #030303)" d="M13.656 13.109h0.125l0.094 0.063 0.188 0.266 0.078 0.125-0.031 0.078-0.172 0.328-0.078-0.078-0.219-0.313-0.109-0.172-0.031-0.078 0.016-0.094 0.078-0.094z"></path>
</symbol>
<symbol id="icon-controller-record" viewBox="0 0 20 20">
<path d="M10 3c-3.866 0-7 3.133-7 7 0 3.865 3.134 7 7 7s7-3.135 7-7c0-3.867-3.134-7-7-7z"></path>
</symbol>
</defs>
</svg>
